<svg width="126" height="33" viewBox="0 0 126 33" fill="none" xmlns="http://www.w3.org/2000/svg">
<g clip-path="url(#clip0_39_4890)">
<path fill-rule="evenodd" clip-rule="evenodd" d="M32.1443 21.2448L30.4899 19.482V4.3038C30.4899 2.24951 28.883 0.558816 26.832 0.454928C26.8287 0.454928 26.7834 0.452694 26.7817 0.452694C26.7326 0.451019 26.684 0.449902 26.6354 0.449902H9.88938C9.85698 0.45046 9.82403 0.451019 9.79498 0.452136C9.7732 0.453253 9.75086 0.45437 9.73522 0.454928C9.13312 0.485648 8.53939 0.66047 8.01716 0.959845C8.01549 0.960962 7.98253 0.979953 7.98086 0.98107C7.94846 1.00006 7.91663 1.01905 7.88926 1.03636C7.87418 1.04586 7.85965 1.0548 7.84737 1.06317C7.80995 1.08663 7.77252 1.11233 7.73789 1.13578C7.73789 1.13578 7.69656 1.16483 7.69433 1.1665C7.68688 1.17172 5.64096 2.68181 1.55657 5.69679C1.5387 5.70964 1.52306 5.72137 1.51077 5.73086C1.48564 5.75041 1.45995 5.77052 1.43649 5.78951C1.41526 5.80682 1.3946 5.82358 1.3784 5.83698C1.35047 5.861 1.32255 5.88502 1.29183 5.91183C1.26781 5.93305 1.24435 5.95484 1.22536 5.97215C1.20749 5.98891 1.18961 6.00622 1.17565 6.01963C1.13935 6.05481 1.1036 6.09056 1.0712 6.12463L1.05612 6.14027C1.02038 6.17825 0.985748 6.21623 0.947209 6.26035C0.945533 6.26203 0.92766 6.2827 0.92766 6.2827C0.896382 6.319 0.865663 6.35642 0.831033 6.40055L0.821538 6.41228C0.787468 6.45584 0.754514 6.49941 0.723794 6.54186L0.71039 6.56085C0.643924 6.65524 0.582485 6.75019 0.530541 6.839C0.217761 7.37128 0.0356777 7.98009 0.00439963 8.59895C0.00384109 8.61235 0.00272402 8.64307 0.00216548 8.65983C0.000489872 8.70228 -6.86646e-05 8.74528 -6.86646e-05 8.78829V25.4941C-6.86646e-05 25.5187 -6.86646e-05 25.5433 0.000489872 25.565C0.00104841 25.6014 0.00216548 25.6377 0.00384109 25.6695C0.00495816 25.6952 0.00663377 25.7209 0.00775084 25.7376C0.00998499 25.779 0.0133362 25.8209 0.017246 25.86C0.0200386 25.8896 0.0233899 25.9186 0.0261825 25.9426C0.0312094 25.9856 0.0367947 26.027 0.040146 26.0515C0.0451728 26.0856 0.0507581 26.1202 0.0552264 26.1454C0.0602533 26.1744 0.0652801 26.2035 0.071424 26.2347C0.0781264 26.2699 0.0859459 26.3045 0.0926484 26.3358C0.0993508 26.3649 0.106053 26.3934 0.113873 26.4241C0.121692 26.4565 0.13007 26.4889 0.138448 26.519C0.146268 26.5481 0.154646 26.576 0.161907 26.6011C0.171961 26.6335 0.182014 26.6654 0.193743 26.7017C0.203239 26.7296 0.212734 26.7575 0.223346 26.7877C0.2334 26.8167 0.24457 26.8458 0.254624 26.8726C0.266353 26.9033 0.278641 26.9335 0.289253 26.9603C0.303217 26.9938 0.317739 27.0273 0.331143 27.058C0.344548 27.0876 0.357953 27.1172 0.373034 27.1485C0.389231 27.1831 0.406546 27.2178 0.426095 27.2563L0.448995 27.3004C0.47357 27.3457 0.498704 27.3915 0.518812 27.4255L0.540595 27.463C0.596448 27.5568 0.657329 27.6495 0.718209 27.7344C0.732731 27.7551 0.747811 27.7757 0.763451 27.7964C0.831033 27.8874 0.903643 27.9768 0.980163 28.0623C1.22145 28.332 1.49793 28.5655 1.79842 28.7543C1.82467 28.771 1.85204 28.7872 1.87438 28.8012C1.90063 28.8168 1.92688 28.8319 1.95369 28.847C1.98385 28.8643 2.01457 28.8811 2.05144 28.9006C2.05367 28.9017 2.11176 28.9319 2.11176 28.9319C2.14024 28.9464 2.16929 28.9609 2.2028 28.9766C2.21732 28.9833 2.25977 29.0028 2.26368 29.0045C2.30501 29.0235 2.34634 29.0414 2.38991 29.0592L2.42175 29.0721C2.46419 29.0894 2.50776 29.1056 2.55133 29.1212C2.55356 29.1224 2.60271 29.1391 2.60494 29.1402C2.82445 29.2151 3.05289 29.2709 3.28636 29.3061C3.47403 29.334 3.66505 29.348 3.85383 29.348H13.7628L21.4176 32.2881C21.4544 32.3027 21.4919 32.3166 21.5365 32.3323C21.5365 32.3323 21.5622 32.3412 21.5645 32.3423C21.6064 32.3563 21.6482 32.3703 21.6885 32.382C21.708 32.3881 21.7661 32.4049 21.7661 32.4049C21.7963 32.4138 21.8275 32.4216 21.8555 32.4289C21.8728 32.4334 21.9163 32.4445 21.9191 32.4451C21.9482 32.4518 21.9783 32.4585 22.0079 32.4652C22.0107 32.4652 22.0794 32.4797 22.0917 32.482C22.1303 32.4892 22.1682 32.4959 22.1928 32.4998C22.2291 32.506 22.266 32.511 22.2961 32.5149C22.3146 32.5177 22.3336 32.5199 22.347 32.5216C22.381 32.5261 22.4146 32.5294 22.4453 32.5322C22.4698 32.5345 22.4944 32.5367 22.5156 32.5384C22.5441 32.5406 22.5743 32.5428 22.6134 32.5451H22.6195C22.6536 32.5467 22.6871 32.5479 22.7379 32.5495C22.7407 32.5495 22.8072 32.5501 22.8139 32.5501C22.8603 32.5501 22.9072 32.549 22.9491 32.5479C22.9675 32.5467 22.9865 32.5462 22.9965 32.5456C23.053 32.5428 23.1071 32.5395 23.1535 32.535L23.1937 32.5311C23.225 32.5283 23.2557 32.5244 23.287 32.5205C23.2915 32.5199 23.368 32.5099 23.368 32.5099C23.4864 32.4926 23.6037 32.4702 23.7171 32.4423C23.7277 32.4401 23.7377 32.4373 23.745 32.4356C23.7975 32.4228 23.8505 32.4082 23.9047 32.392C23.907 32.3915 23.9282 32.3848 23.9282 32.3848C24.3638 32.2535 24.7682 32.0485 25.1307 31.7754L31.6226 26.9832C31.6472 26.9647 31.6712 26.9463 31.7025 26.9223C31.7025 26.9223 31.7667 26.8709 31.7846 26.8564C32.5738 26.2062 33.0798 25.2489 33.172 24.2313C33.2714 23.1354 32.8972 22.0474 32.1443 21.2448ZM21.2511 25.6064L26.5745 21.6765L28.5802 23.8135L22.9278 27.9863L21.2511 25.6064ZM9.43026 9.78695V20.7527L4.35651 24.4982V13.5325L9.43026 9.78695ZM10.0983 21.5095H19.0293L14.3124 24.9914H5.38143L10.0983 21.5095ZM16.1774 4.80648H25.1084L20.391 8.2884H11.4605L16.1774 4.80648ZM20.0542 9.29377V20.5041H10.4356V9.29377H20.0542ZM21.0595 20.011V9.04466L26.1333 5.29911V16.2654L21.0595 20.011Z" fill="white"/>
<path fill-rule="evenodd" clip-rule="evenodd" d="M31.3294 22.0093L29.3729 19.9243V4.30375C29.3729 2.84485 28.2318 1.644 26.7757 1.57027L26.7399 1.56915C26.7053 1.56748 26.6701 1.56692 26.6355 1.56692H9.90173C9.87939 1.56748 9.85649 1.56803 9.83415 1.56859C9.81907 1.56859 9.80399 1.56971 9.79226 1.57027C9.36498 1.59261 8.94273 1.71661 8.57298 1.92885L8.54616 1.94393C8.52326 1.95789 8.50092 1.9713 8.48138 1.98359C8.47076 1.99029 8.46015 1.99699 8.45066 2.00313C8.42608 2.01877 8.40095 2.03553 8.3786 2.05117L8.3423 2.07686C8.33727 2.08021 2.22409 6.59207 2.22409 6.59207C2.2118 6.60156 2.20119 6.60938 2.19002 6.61776C2.17215 6.63172 2.15372 6.64569 2.1364 6.66021C2.12188 6.67194 2.10792 6.68311 2.09619 6.69316C2.07608 6.70992 2.05597 6.72723 2.03475 6.74622C2.01799 6.76075 2.00124 6.77639 1.98727 6.78923C1.97499 6.80096 1.9627 6.81269 1.95153 6.8233C1.92583 6.84788 1.9007 6.87357 1.87612 6.89926C1.87445 6.90038 1.86663 6.90932 1.86663 6.90932C1.84094 6.93613 1.81636 6.9635 1.78899 6.99477L1.77559 7.01041C1.75325 7.03611 1.73202 7.06236 1.70856 7.0914L1.69963 7.10257C1.67617 7.13273 1.65327 7.16289 1.63316 7.19082L1.62143 7.20758C1.57396 7.2746 1.53039 7.34218 1.49353 7.40474C1.27179 7.78287 1.14277 8.21406 1.12042 8.65474C1.11987 8.66647 1.11875 8.69663 1.11875 8.70054C1.11763 8.72959 1.11707 8.75863 1.11707 8.78823V25.4941C1.11707 25.5108 1.11707 25.5276 1.11763 25.5449C1.11819 25.57 1.11875 25.5957 1.11987 25.6197C1.12042 25.637 1.12154 25.6538 1.12266 25.6678C1.12433 25.6968 1.12657 25.7258 1.12936 25.7543C1.13104 25.7744 1.13327 25.794 1.1355 25.8135C1.13886 25.842 1.14277 25.8705 1.14556 25.8901C1.14891 25.9135 1.15282 25.9381 1.15617 25.9565C1.16008 25.9777 1.16343 25.9984 1.1679 26.0196C1.17237 26.0442 1.17795 26.0688 1.18298 26.0928C1.18801 26.1129 1.19248 26.1336 1.1975 26.1542C1.20365 26.1771 1.20923 26.2 1.21593 26.2229C1.22096 26.2425 1.22655 26.262 1.23213 26.2805C1.23939 26.3039 1.24665 26.3268 1.25447 26.3508C1.26118 26.371 1.26788 26.3911 1.2757 26.4134C1.28296 26.4335 1.29078 26.4536 1.2986 26.4743C1.30642 26.4955 1.31479 26.5156 1.32261 26.5357C1.33211 26.5586 1.34216 26.5821 1.35333 26.6067C1.36227 26.6273 1.37177 26.648 1.38126 26.6681C1.39299 26.6927 1.40528 26.7172 1.41812 26.7418C1.41812 26.7418 1.43153 26.7681 1.436 26.777C1.45275 26.8083 1.47063 26.8401 1.48459 26.8641C1.48459 26.8641 1.49967 26.8904 1.50079 26.8921C1.54044 26.9585 1.58345 27.0244 1.62869 27.0876C1.63875 27.1015 1.6488 27.1149 1.65885 27.1289C1.70689 27.1937 1.75883 27.2568 1.81357 27.3177C1.98448 27.5093 2.18164 27.6757 2.39556 27.8103C2.41399 27.8215 2.43243 27.8326 2.44862 27.8427C2.46706 27.8539 2.48605 27.8645 2.50504 27.8751C2.52626 27.8874 2.5486 27.8997 2.57541 27.9142C2.57988 27.9164 2.61786 27.936 2.61786 27.936C2.63797 27.946 2.65919 27.9566 2.68097 27.9667C2.69215 27.9723 2.72454 27.9874 2.72454 27.9874C2.75358 28.0002 2.78263 28.0125 2.81223 28.0248C2.81223 28.0248 2.83346 28.0337 2.83681 28.0348C2.86753 28.0471 2.89825 28.0589 2.92952 28.07C2.93343 28.0717 2.96695 28.0829 2.96695 28.0829C3.12278 28.1365 3.28475 28.1761 3.45008 28.2007C3.58357 28.2208 3.71929 28.2309 3.8539 28.2309H13.9701L21.8226 31.247C21.8494 31.2576 21.8762 31.2676 21.9064 31.2783L21.9276 31.2855C21.9561 31.2956 21.9851 31.3045 22.0125 31.3129C22.0225 31.3162 22.0644 31.3285 22.0694 31.3296C22.0907 31.3358 22.1125 31.3419 22.1342 31.347C22.1476 31.3509 22.161 31.3542 22.1778 31.3581C22.199 31.3632 22.2208 31.3682 22.242 31.3727C22.2577 31.376 22.2901 31.3827 22.3018 31.3844C22.3275 31.3894 22.3532 31.3944 22.3716 31.3972C22.3973 31.4011 22.423 31.405 22.4465 31.4084C22.4587 31.4101 22.4716 31.4112 22.4839 31.4129C22.5073 31.4157 22.5302 31.4184 22.5515 31.4201C22.5688 31.4218 22.5867 31.4235 22.6045 31.4246C22.6252 31.4263 22.6464 31.4279 22.6743 31.4296C22.7 31.4307 22.7257 31.4313 22.7637 31.4324C22.7738 31.4324 22.8089 31.433 22.814 31.433C22.8469 31.433 22.8799 31.4324 22.91 31.4313C22.9229 31.4307 22.9352 31.4302 22.9441 31.4296C22.9827 31.4279 23.0195 31.4252 23.0502 31.4224C23.0502 31.4224 23.0804 31.4196 23.0843 31.4196C23.1061 31.4173 23.1284 31.4145 23.1508 31.4117C23.1524 31.4117 23.2027 31.405 23.2077 31.4045C23.2926 31.3916 23.3781 31.3754 23.458 31.3559C23.463 31.3548 23.4686 31.3531 23.4742 31.352C23.5116 31.3425 23.5496 31.3324 23.5875 31.3207C23.5881 31.3207 23.6021 31.3168 23.6054 31.3157C23.916 31.2218 24.2047 31.0749 24.4633 30.88L30.9597 26.0839C30.9759 26.0721 30.9915 26.0599 31.0105 26.0453C31.0105 26.0453 31.0613 26.0046 31.0747 25.9939C31.6349 25.5326 31.9941 24.8529 32.0594 24.1301C32.1304 23.3521 31.8645 22.5791 31.3294 22.0093ZM21.2512 25.6063L26.5746 21.6765L28.5803 23.8134L22.9279 27.9862L21.2512 25.6063ZM9.43033 9.7869V20.7526L4.35658 24.4982V13.5324L9.43033 9.7869ZM10.0983 21.5095H19.0293L14.3125 24.9914H5.3815L10.0983 21.5095ZM16.1774 4.80643H25.1084L20.391 8.28834H11.4606L16.1774 4.80643ZM20.0542 9.29371V20.5041H10.4357V9.29371H20.0542ZM21.0596 20.0109V9.0446L26.1334 5.29906V16.2654L21.0596 20.0109Z" fill="#999999"/>
<path fill-rule="evenodd" clip-rule="evenodd" d="M30.5145 22.7739L28.2552 20.3661V4.30368C28.2552 3.44018 27.5799 2.72972 26.7175 2.68616C26.7125 2.68616 26.7041 2.68616 26.6974 2.68504C26.6762 2.68448 26.6555 2.68392 26.6349 2.68392H9.91285C9.90001 2.68392 9.8866 2.68448 9.87375 2.68504C9.86482 2.68504 9.85644 2.6856 9.84862 2.68616C9.59616 2.699 9.3465 2.77217 9.12643 2.8984C9.12364 2.90008 9.11191 2.90734 9.11191 2.90734C9.09795 2.91516 9.08454 2.92354 9.07337 2.93024C9.06667 2.93471 9.06053 2.93862 9.05382 2.94308C9.04098 2.9509 9.02757 2.95984 9.01584 2.96822C9.01584 2.96822 8.99574 2.98218 8.98959 2.98665L2.88982 7.48901C2.88256 7.49404 2.87697 7.49851 2.87027 7.50353C2.8591 7.51247 2.84737 7.52085 2.8362 7.53034C2.82838 7.53649 2.82056 7.54319 2.8133 7.54933C2.80101 7.55939 2.78872 7.57 2.77699 7.58061C2.76694 7.58899 2.75744 7.59793 2.74795 7.60686C2.74125 7.61357 2.73398 7.62027 2.72672 7.62697C2.71164 7.64149 2.69712 7.65601 2.68316 7.67109C2.68316 7.67109 2.67869 7.67556 2.67646 7.6778C2.66193 7.69344 2.64741 7.70908 2.63345 7.72527C2.63345 7.72527 2.62619 7.73365 2.62284 7.73756C2.60999 7.75208 2.5977 7.76716 2.58541 7.7828C2.58262 7.78615 2.58039 7.78951 2.57759 7.79286C2.56419 7.81017 2.55078 7.82749 2.53794 7.84536C2.5357 7.84815 2.53403 7.85094 2.53179 7.8543C2.50387 7.89339 2.47762 7.93361 2.45639 7.97103C2.32514 8.19444 2.24862 8.44969 2.23521 8.70886C2.23521 8.71723 2.23409 8.74125 2.23409 8.74125C2.23354 8.75689 2.23354 8.77253 2.23354 8.78817V25.523C2.23409 25.5387 2.23465 25.5538 2.23521 25.5688C2.23577 25.5783 2.23633 25.5878 2.23689 25.5973C2.238 25.6146 2.23912 25.6314 2.2408 25.6481C2.24191 25.6599 2.24303 25.6716 2.24471 25.6828C2.24638 25.699 2.24862 25.7152 2.25029 25.7286C2.25253 25.742 2.25476 25.7565 2.25699 25.7694C2.25923 25.7811 2.26146 25.7934 2.2637 25.8057C2.26649 25.8202 2.26928 25.8341 2.27263 25.8481C2.27543 25.8604 2.27822 25.8727 2.28101 25.8844C2.28436 25.8984 2.28827 25.9118 2.29218 25.9257C2.29497 25.9369 2.29833 25.9481 2.30168 25.9593C2.30559 25.9732 2.31006 25.9872 2.31508 26.0011C2.31899 26.0134 2.3229 26.0252 2.32737 26.0374C2.33184 26.0497 2.33631 26.062 2.34133 26.0749C2.3458 26.0872 2.35027 26.0989 2.3553 26.1101C2.36088 26.124 2.36703 26.1385 2.37373 26.1536C2.37876 26.1648 2.38434 26.1765 2.38937 26.1877C2.39663 26.2028 2.40389 26.2173 2.41115 26.2318C2.41394 26.2368 2.42065 26.2508 2.42176 26.2525C2.43182 26.2709 2.44187 26.2893 2.45025 26.3033C2.4536 26.3089 2.45695 26.315 2.4603 26.3212C2.48432 26.3608 2.51001 26.4005 2.53738 26.4385C2.54296 26.4463 2.54855 26.4536 2.55414 26.4614C2.58262 26.4999 2.61334 26.5373 2.64574 26.5736C2.74683 26.687 2.86356 26.7853 2.99259 26.8663C3.00208 26.8725 3.01214 26.8786 3.02219 26.8842C3.0328 26.8909 3.04397 26.897 3.0557 26.9037C3.06855 26.911 3.08139 26.9183 3.09759 26.9266C3.09759 26.9266 3.11993 26.9384 3.12328 26.94C3.13445 26.9456 3.14618 26.9512 3.15791 26.9568C3.16629 26.9607 3.18416 26.9691 3.18472 26.9691C3.20148 26.9769 3.21879 26.9847 3.23611 26.9914C3.24002 26.9931 3.24951 26.997 3.25119 26.9976C3.26962 27.0048 3.28805 27.0121 3.30704 27.0188C3.31207 27.021 3.32603 27.0255 3.32827 27.0261C3.42043 27.0579 3.51649 27.0814 3.61368 27.0959C3.69299 27.1076 3.77342 27.1137 3.85329 27.1137H14.1767L22.2269 30.2064C22.2431 30.2125 22.2593 30.2187 22.2761 30.2242C22.2805 30.2259 22.2855 30.2276 22.29 30.2293C22.3062 30.2348 22.3224 30.2399 22.3392 30.2449C22.3448 30.2466 22.3665 30.2533 22.3716 30.2544C22.3844 30.2583 22.3973 30.2617 22.4107 30.265C22.4196 30.2672 22.4285 30.2695 22.4375 30.2717C22.4503 30.2745 22.4637 30.2779 22.4766 30.2806C22.4794 30.2806 22.5023 30.2857 22.5118 30.2874C22.5257 30.2901 22.5397 30.2929 22.5514 30.2946C22.5659 30.2968 22.581 30.2991 22.5944 30.3008C22.6017 30.3019 22.6089 30.303 22.6168 30.3035C22.6302 30.3052 22.6436 30.3069 22.6559 30.308C22.667 30.3091 22.6788 30.3103 22.6905 30.3108C22.7028 30.3119 22.7151 30.313 22.7296 30.3136C22.7458 30.3142 22.7625 30.3147 22.7838 30.3153C22.7893 30.3158 22.8106 30.3158 22.8134 30.3158C22.8324 30.3158 22.8519 30.3153 22.8715 30.3147C22.8782 30.3147 22.8843 30.3142 22.891 30.3142C22.9117 30.313 22.9318 30.3114 22.9485 30.3102C22.9564 30.3091 22.9731 30.3075 22.9731 30.3075C22.9865 30.3063 22.9994 30.3047 23.0128 30.303C23.0167 30.303 23.0401 30.2996 23.0463 30.2985C23.0965 30.2913 23.1463 30.2818 23.1948 30.27C23.1948 30.27 23.1999 30.2689 23.2027 30.2678C23.2244 30.2628 23.2468 30.2566 23.2686 30.2499C23.273 30.2488 23.277 30.2477 23.2814 30.2466C23.4674 30.1902 23.6394 30.1025 23.7936 29.9852L30.2955 25.1851C30.3033 25.179 30.3117 25.1728 30.3195 25.1667C30.3195 25.1667 30.3558 25.1382 30.3637 25.1321C30.6949 24.8589 30.9077 24.4562 30.9462 24.0284C30.9881 23.5682 30.8312 23.1107 30.5145 22.7739ZM4.35597 13.5324L9.42972 9.78683V20.7526L4.35597 24.4981V13.5324ZM5.38089 24.9913L10.0977 21.5094H19.0287L14.3119 24.9913H5.38089ZM16.1768 4.80636H25.1078L20.3904 8.28828H11.46L16.1768 4.80636ZM20.0536 9.29364V20.504H10.4351V9.29364H20.0536ZM21.059 20.0108V9.04454L26.1327 5.29899V16.2653L21.059 20.0108ZM21.2506 25.6063L26.574 21.6764L28.5797 23.8134L22.9273 27.9862L21.2506 25.6063Z" fill="white"/>
<path fill-rule="evenodd" clip-rule="evenodd" d="M29.7006 23.5381L27.1386 20.808V4.30377C27.1386 4.03456 26.9275 3.81505 26.6616 3.80165H26.6566C26.6493 3.80109 26.6426 3.80109 26.6354 3.80109H9.92675C9.92173 3.80109 9.91726 3.80109 9.91223 3.80165H9.90665C9.82957 3.80556 9.75249 3.82734 9.68211 3.86811C9.681 3.86867 9.67988 3.86923 9.67876 3.86979C9.67429 3.87258 9.66983 3.87537 9.6648 3.87872C9.66257 3.87984 9.66033 3.88096 9.65866 3.88263C9.65754 3.88319 9.65642 3.88375 9.6553 3.88431L9.64469 3.89213C9.64469 3.89213 9.64078 3.89492 9.63911 3.89604L9.63408 3.89939L3.55497 8.38667C3.55497 8.38667 3.55274 8.38835 3.55162 8.38891C3.54715 8.39282 3.54212 8.39617 3.53766 8.40008C3.53542 8.40231 3.53263 8.40399 3.53039 8.40622C3.52704 8.40901 3.52313 8.41236 3.51978 8.41516C3.51643 8.41851 3.51308 8.4213 3.51029 8.42409C3.50805 8.42577 3.50582 8.428 3.50359 8.43024C3.49968 8.43415 3.49521 8.43862 3.4913 8.44253L3.48962 8.4442C3.48515 8.44923 3.48013 8.45481 3.4751 8.45984C3.47454 8.46096 3.47342 8.46207 3.47231 8.46375C3.46784 8.46822 3.46393 8.47325 3.46002 8.47827C3.45946 8.47939 3.45834 8.48051 3.45779 8.48106C3.45388 8.48665 3.44941 8.49168 3.44606 8.4967C3.4455 8.49726 3.4455 8.49782 3.44494 8.49838C3.436 8.51067 3.42762 8.52351 3.4198 8.53692C3.38015 8.6045 3.35557 8.68214 3.35166 8.76536V8.77709L3.3511 25.5008C3.3511 25.5064 3.3511 25.5125 3.35166 25.5181C3.35166 25.5209 3.35166 25.5231 3.35222 25.5259C3.35222 25.5321 3.35278 25.5376 3.35334 25.5438C3.35334 25.5466 3.35334 25.5488 3.35446 25.5516C3.35446 25.5566 3.35557 25.5622 3.35613 25.5673C3.35669 25.5712 3.35781 25.5751 3.35837 25.5795C3.35892 25.5835 3.35948 25.5874 3.3606 25.5913C3.36116 25.5957 3.36228 25.5996 3.36339 25.6041C3.36395 25.608 3.36507 25.6114 3.36563 25.6153C3.36674 25.6198 3.36842 25.6248 3.36954 25.6292C3.36954 25.6326 3.37121 25.6354 3.37177 25.6382C3.37345 25.6432 3.37512 25.6477 3.37624 25.6521C3.37736 25.6555 3.37847 25.6594 3.38015 25.6628C3.38127 25.6672 3.3835 25.6711 3.38518 25.6756C3.38629 25.679 3.38741 25.6818 3.38853 25.6851C3.39076 25.6896 3.39244 25.6946 3.39467 25.6991C3.39579 25.7019 3.3969 25.7047 3.39858 25.7074C3.40137 25.7136 3.40417 25.7192 3.40696 25.7248C3.40752 25.7259 3.40808 25.727 3.40863 25.7287C3.41199 25.7343 3.41534 25.7404 3.41869 25.7465C3.4198 25.7477 3.42036 25.7493 3.42148 25.751C3.4293 25.7644 3.43824 25.7778 3.44773 25.7901C3.44829 25.7912 3.44885 25.7918 3.44941 25.7923C3.4589 25.8057 3.46896 25.818 3.47901 25.8298C3.51252 25.8666 3.54994 25.8973 3.59016 25.9219C3.59128 25.923 3.59239 25.9236 3.59351 25.9247C3.59798 25.9269 3.60245 25.9297 3.60691 25.932C3.61027 25.9337 3.61362 25.9359 3.61641 25.9376C3.61976 25.9387 3.62255 25.9404 3.62535 25.942C3.62981 25.9443 3.63372 25.9465 3.63819 25.9482C3.64099 25.9498 3.64378 25.951 3.64657 25.9521C3.6516 25.9543 3.65662 25.9566 3.66165 25.9588C3.66277 25.9593 3.66444 25.9599 3.66612 25.9605C3.67226 25.9627 3.67841 25.9655 3.68455 25.9677C3.68567 25.9677 3.68679 25.9683 3.6879 25.9688C3.71695 25.9789 3.74711 25.9862 3.77839 25.9912C3.80352 25.9951 3.82865 25.9968 3.85379 25.9968H14.3844L22.6312 29.1648C22.6368 29.167 22.643 29.1693 22.6491 29.1715C22.6508 29.1715 22.6519 29.172 22.6536 29.1726C22.6586 29.1743 22.6636 29.176 22.6686 29.1776C22.6709 29.1776 22.6726 29.1787 22.6748 29.1793C22.6798 29.181 22.6848 29.1821 22.6893 29.1832C22.6921 29.1838 22.6949 29.1843 22.6971 29.1854C22.7016 29.186 22.7061 29.1871 22.7111 29.1882C22.7139 29.1882 22.7167 29.1894 22.7195 29.1899C22.7239 29.1905 22.7284 29.1916 22.7329 29.1922L22.7429 29.1938C22.7463 29.1944 22.7496 29.1949 22.7535 29.1949C22.7575 29.1955 22.7614 29.1961 22.7653 29.1966C22.7692 29.1966 22.7731 29.1972 22.777 29.1972C22.7803 29.1977 22.7831 29.1977 22.7865 29.1983C22.7915 29.1983 22.7971 29.1983 22.8027 29.1989H22.81C22.8172 29.1989 22.825 29.1989 22.8329 29.1983H22.8334C22.8407 29.1983 22.8479 29.1977 22.8552 29.1972C22.8574 29.1966 22.8602 29.1966 22.863 29.1961C22.8675 29.1961 22.8725 29.1949 22.8775 29.1944C22.8803 29.1944 22.8826 29.1938 22.8854 29.1933C22.9004 29.191 22.9161 29.1882 22.9312 29.1849C22.9317 29.1843 22.9323 29.1843 22.9328 29.1843C22.9401 29.1827 22.9468 29.181 22.9535 29.1787C22.9546 29.1782 22.9563 29.1782 22.9574 29.1776C23.0166 29.1598 23.0725 29.1313 23.1222 29.0927L29.6325 24.2865L29.6537 24.2698C29.757 24.1849 29.8224 24.0614 29.8347 23.9274C29.8475 23.7844 29.7989 23.6431 29.7006 23.5381ZM22.0844 20.5041L26.1332 17.5154V20.5041H22.0844ZM25.1083 21.5095L21.0595 24.4982V21.5095H25.1083ZM21.0595 20.0109V9.04463L26.1332 5.29908V16.2654L21.0595 20.0109ZM25.1083 4.80645L20.3909 8.28837H11.4605L16.1773 4.80645H25.1083ZM10.4356 4.80645H14.4844L10.4356 7.79518V4.80645ZM10.4356 9.29374H20.0541V20.5041H10.4356V9.29374ZM9.43021 5.29964V8.28837H5.38138L9.43021 5.29964ZM4.35647 9.29374H8.40586L4.35647 12.283V9.29374ZM4.35647 13.5325L9.43021 9.78692V20.7527L4.35647 24.4982V13.5325ZM14.3124 24.9914H5.38138L10.0982 21.5095H19.0292L14.3124 24.9914ZM20.0541 22.0027V24.9914H16.0053L20.0541 22.0027ZM17.1877 25.9968H20.296L21.4494 27.6338L17.1877 25.9968ZM22.9278 27.9863L21.2511 25.6063L26.5745 21.6765L28.5802 23.8134L22.9278 27.9863Z" fill="#999999"/>
<path fill-rule="evenodd" clip-rule="evenodd" d="M26.1339 5.29909V16.2654L21.0602 20.0109V9.04464L26.1339 5.29909Z" fill="white"/>
<path fill-rule="evenodd" clip-rule="evenodd" d="M28.5796 23.8134L22.9272 27.9862L21.2505 25.6063L26.5739 21.6765L28.5796 23.8134Z" fill="white"/>
<path fill-rule="evenodd" clip-rule="evenodd" d="M19.0285 21.5095L14.3116 24.9914H5.38063L10.0975 21.5095H19.0285Z" fill="white"/>
<path d="M20.054 9.29379H10.4355V20.5042H20.054V9.29379Z" fill="white"/>
<path fill-rule="evenodd" clip-rule="evenodd" d="M9.42998 9.78687V20.7526L4.35623 24.4982V13.5324L9.42998 9.78687Z" fill="white"/>
<path fill-rule="evenodd" clip-rule="evenodd" d="M25.1088 4.80648L20.3909 8.28837H11.4605L16.1778 4.80648H25.1088Z" fill="white"/>
</g>
<path d="M57.0552 26.3876L51.9224 21.2816L53.2591 19.9449L58.3651 25.051L57.0552 26.3876ZM49.7303 26.401C47.8144 26.401 46.1971 25.9777 44.8782 25.1312C43.5594 24.2757 42.5614 23.095 41.8841 21.589C41.2069 20.0831 40.8683 18.3454 40.8683 16.3761C40.8683 14.4067 41.2069 12.6691 41.8841 11.1631C42.5614 9.65715 43.5594 8.48089 44.8782 7.63434C46.1971 6.77888 47.8144 6.35115 49.7303 6.35115C51.6551 6.35115 53.2724 6.77888 54.5824 7.63434C55.9012 8.48089 56.8992 9.65715 57.5765 11.1631C58.2626 12.6691 58.6057 14.4067 58.6057 16.3761C58.6057 18.3454 58.2626 20.0831 57.5765 21.589C56.8992 23.095 55.9012 24.2757 54.5824 25.1312C53.2724 25.9777 51.6551 26.401 49.7303 26.401ZM49.7303 24.5163C51.2363 24.5163 52.4927 24.1732 53.4997 23.4871C54.5066 22.8009 55.2596 21.8475 55.7586 20.6266C56.2666 19.3969 56.5205 17.9801 56.5205 16.3761C56.5205 14.7721 56.2666 13.3597 55.7586 12.1389C55.2596 10.9181 54.5066 9.96458 53.4997 9.27843C52.4927 8.59228 51.2363 8.24475 49.7303 8.23584C48.2243 8.23584 46.9723 8.57891 45.9743 9.26506C44.9763 9.95121 44.2233 10.9092 43.7154 12.1389C43.2163 13.3597 42.9624 14.7721 42.9535 16.3761C42.9446 17.9801 43.1896 19.3925 43.6886 20.6133C44.1966 21.8252 44.954 22.7787 45.9609 23.4737C46.9679 24.1599 48.2243 24.5074 49.7303 24.5163ZM66.696 26.401C65.3683 26.401 64.2455 26.0668 63.3277 25.3985C62.4098 24.7213 61.7148 23.8079 61.2425 22.6584C60.7702 21.4999 60.534 20.2034 60.534 18.7687C60.534 17.3073 60.7702 16.0063 61.2425 14.8657C61.7237 13.7161 62.4276 12.8117 63.3544 12.1522C64.2811 11.4928 65.4217 11.1631 66.7762 11.1631C68.0951 11.1631 69.2268 11.4973 70.1713 12.1656C71.1159 12.8339 71.8377 13.7429 72.3367 14.8924C72.8446 16.0419 73.0986 17.334 73.0986 18.7687C73.0986 20.2123 72.8446 21.5088 72.3367 22.6584C71.8288 23.8079 71.0981 24.7213 70.1446 25.3985C69.1911 26.0668 68.0416 26.401 66.696 26.401ZM60.1999 26V6.75215H62.1781V15.133H61.9643V26H60.1999ZM66.4955 24.5698C67.5025 24.5698 68.3401 24.3158 69.0084 23.8079C69.6768 23.3 70.1758 22.6093 70.5055 21.7361C70.8441 20.8539 71.0134 19.8647 71.0134 18.7687C71.0134 17.6815 70.8486 16.7013 70.5189 15.828C70.1892 14.9548 69.6857 14.2642 69.0084 13.7562C68.3401 13.2483 67.4891 12.9943 66.4554 12.9943C65.4485 12.9943 64.6108 13.2394 63.9425 13.7295C63.2831 14.2196 62.7885 14.9013 62.4588 15.7746C62.1291 16.639 61.9643 17.637 61.9643 18.7687C61.9643 19.8826 62.1291 20.8806 62.4588 21.7628C62.7885 22.6361 63.2876 23.3222 63.9559 23.8213C64.6242 24.3203 65.4708 24.5698 66.4955 24.5698ZM81.073 26.401C79.6651 26.401 78.4443 26.0891 77.4106 25.4653C76.3858 24.8416 75.5883 23.9638 75.018 22.8321C74.4477 21.7004 74.1625 20.3727 74.1625 18.8489C74.1625 17.2716 74.4432 15.9082 75.0046 14.7587C75.566 13.6092 76.3546 12.7225 77.3705 12.0988C78.3952 11.475 79.6027 11.1631 80.9928 11.1631C82.4186 11.1631 83.6349 11.4928 84.6419 12.1522C85.6488 12.8027 86.4107 13.7384 86.9276 14.9592C87.4444 16.18 87.6806 17.637 87.636 19.3301H85.631V18.635C85.5954 16.7637 85.1899 15.3513 84.4147 14.3978C83.6483 13.4443 82.5255 12.9676 81.0463 12.9676C79.4958 12.9676 78.3061 13.4711 77.4774 14.478C76.6576 15.485 76.2477 16.9196 76.2477 18.7821C76.2477 20.5999 76.6576 22.0123 77.4774 23.0193C78.3061 24.0173 79.4779 24.5163 80.9928 24.5163C82.0265 24.5163 82.9265 24.2802 83.6929 23.8079C84.4681 23.3267 85.0785 22.6361 85.5241 21.7361L87.3553 22.4445C86.785 23.701 85.9429 24.6767 84.829 25.3718C83.7241 26.0579 82.472 26.401 81.073 26.401ZM75.5526 19.3301V17.686H86.58V19.3301H75.5526ZM93.4022 26.401C92.3151 26.401 91.4017 26.205 90.6621 25.8129C89.9314 25.4208 89.3833 24.8995 89.018 24.249C88.6526 23.5985 88.4699 22.89 88.4699 22.1237C88.4699 21.3395 88.6259 20.6712 88.9378 20.1187C89.2586 19.5573 89.6908 19.0984 90.2343 18.742C90.7868 18.3855 91.424 18.1137 92.1457 17.9266C92.8765 17.7484 93.6829 17.5924 94.5651 17.4588C95.4562 17.3162 96.325 17.1959 97.1716 17.0979C98.027 16.9909 98.7756 16.8885 99.4172 16.7904L98.7221 17.2182C98.7488 15.7924 98.4726 14.7364 97.8934 14.0503C97.3142 13.3641 96.3072 13.0211 94.8725 13.0211C93.8834 13.0211 93.0458 13.2438 92.3596 13.6894C91.6824 14.1349 91.2056 14.8389 90.9294 15.8013L89.018 15.2399C89.3477 13.9478 90.0116 12.9453 91.0096 12.2324C92.0076 11.5196 93.3042 11.1631 94.8993 11.1631C96.2181 11.1631 97.3364 11.4126 98.2543 11.9116C99.181 12.4018 99.836 13.1146 100.219 14.0503C100.397 14.4691 100.513 14.9369 100.567 15.4538C100.62 15.9706 100.647 16.4964 100.647 17.031V26H98.8959V22.3777L99.4038 22.5915C98.9137 23.8302 98.1518 24.7747 97.1181 25.4252C96.0844 26.0757 94.8458 26.401 93.4022 26.401ZM93.6294 24.7034C94.5473 24.7034 95.3493 24.5386 96.0354 24.2089C96.7216 23.8792 97.2741 23.4292 97.6929 22.8589C98.1117 22.2796 98.3835 21.6291 98.5082 20.9073C98.6152 20.444 98.6731 19.936 98.682 19.3836C98.6909 18.8222 98.6954 18.4033 98.6954 18.1271L99.4439 18.5147C98.7756 18.6038 98.0493 18.6929 97.2651 18.7821C96.4899 18.8712 95.7235 18.9736 94.9661 19.0895C94.2176 19.2053 93.5403 19.3435 92.9344 19.5039C92.5245 19.6197 92.1279 19.7845 91.7448 19.9984C91.3616 20.2034 91.0452 20.4796 90.7957 20.8271C90.5551 21.1747 90.4348 21.6069 90.4348 22.1237C90.4348 22.5425 90.5373 22.948 90.7423 23.3401C90.9561 23.7321 91.2947 24.0574 91.7581 24.3158C92.2304 24.5742 92.8542 24.7034 93.6294 24.7034ZM108.444 26.3876C106.751 26.3876 105.356 26.0223 104.26 25.2916C103.173 24.5609 102.505 23.545 102.255 22.244L104.26 21.9098C104.474 22.7296 104.96 23.3846 105.717 23.8747C106.484 24.3559 107.428 24.5965 108.551 24.5965C109.647 24.5965 110.511 24.3693 111.144 23.9148C111.777 23.4514 112.093 22.8232 112.093 22.0301C112.093 21.5846 111.991 21.2237 111.786 20.9474C111.59 20.6623 111.184 20.3994 110.569 20.1588C109.954 19.9182 109.037 19.6331 107.816 19.3034C106.506 18.9469 105.481 18.5905 104.741 18.234C104.002 17.8776 103.476 17.4677 103.164 17.0043C102.852 16.532 102.696 15.9573 102.696 15.28C102.696 14.4602 102.928 13.7429 103.391 13.128C103.855 12.5042 104.496 12.023 105.316 11.6844C106.136 11.3369 107.089 11.1631 108.177 11.1631C109.264 11.1631 110.235 11.3413 111.091 11.6978C111.955 12.0453 112.65 12.5354 113.176 13.1681C113.701 13.8008 114.013 14.5359 114.111 15.3736L112.106 15.7345C111.973 14.8879 111.549 14.2196 110.837 13.7295C110.133 13.2305 109.237 12.9721 108.15 12.9542C107.125 12.9275 106.292 13.1235 105.65 13.5424C105.009 13.9523 104.688 14.5003 104.688 15.1865C104.688 15.5696 104.804 15.8993 105.036 16.1756C105.267 16.4429 105.686 16.6969 106.292 16.9375C106.907 17.1781 107.78 17.4409 108.912 17.7261C110.24 18.0647 111.282 18.4212 112.04 18.7954C112.797 19.1697 113.336 19.6108 113.657 20.1187C113.978 20.6266 114.138 21.2549 114.138 22.0034C114.138 23.3668 113.63 24.4406 112.614 25.2247C111.607 26 110.217 26.3876 108.444 26.3876ZM123.893 26C123.082 26.1693 122.28 26.2361 121.487 26.2005C120.703 26.1649 119.999 25.9955 119.375 25.6926C118.76 25.3896 118.292 24.9173 117.971 24.2757C117.713 23.7411 117.57 23.2019 117.544 22.6584C117.526 22.1059 117.517 21.4776 117.517 20.7737V7.55414H119.468V20.6935C119.468 21.2994 119.473 21.8074 119.482 22.2173C119.5 22.6183 119.593 22.9747 119.763 23.2866C120.083 23.8836 120.591 24.2401 121.286 24.3559C121.99 24.4718 122.859 24.445 123.893 24.2757V26ZM114.429 13.2483V11.5641H123.893V13.2483H114.429Z" fill="white"/>
<defs>
<clipPath id="clip0_39_4890">
<rect width="33.1877" height="32.1002" fill="white" transform="translate(0 0.449902)"/>
</clipPath>
</defs>
</svg>
